<?xml version="1.0" standalone="no"?>
<!DOCTYPE svg PUBLIC "-//W3C//DTD SVG 20010904//EN"
 "http://www.w3.org/TR/2001/REC-SVG-20010904/DTD/svg10.dtd">
<svg version="1.0" xmlns="http://www.w3.org/2000/svg"
 width="512.000000pt" height="512.000000pt" viewBox="0 0 512.000000 512.000000"
 preserveAspectRatio="xMidYMid meet">
<metadata>
Created by potrace 1.14, written by Peter Selinger 2001-2017
</metadata>
<g transform="translate(0.000000,512.000000) scale(0.100000,-0.100000)"
fill="#000000" stroke="none">
<path d="M2379 5116 c-2 -2 -40 -6 -83 -10 -44 -4 -82 -8 -85 -10 -3 -2 -31
-7 -61 -11 -61 -7 -166 -29 -250 -52 -75 -20 -243 -74 -255 -82 -5 -4 -28 -13
-50 -20 -65 -22 -282 -133 -385 -196 -300 -187 -586 -463 -779 -754 -91 -138
-148 -243 -218 -401 -78 -176 -157 -439 -177 -591 -3 -19 -7 -50 -10 -69 -27
-162 -29 -525 -3 -700 13 -88 37 -217 53 -280 15 -64 36 -138 44 -155 5 -11
12 -31 16 -45 16 -59 81 -215 140 -333 118 -238 288 -473 479 -660 389 -382
836 -613 1380 -711 17 -3 57 -9 90 -12 33 -4 64 -9 69 -12 15 -9 418 -10 496
-1 144 16 176 21 275 41 568 112 1073 413 1465 873 135 159 286 404 374 605
55 127 126 336 142 419 3 12 11 51 19 85 18 80 28 142 42 271 10 90 10 408 1
505 -88 878 -616 1644 -1405 2039 -153 76 -278 125 -434 170 -121 35 -283 69
-366 77 -32 3 -65 8 -73 11 -16 6 -445 14 -451 9z m-359 -394 c129 -66 250
-145 249 -162 0 -8 -64 -206 -142 -440 l-142 -424 -95 -38 c-150 -61 -482
-228 -638 -323 l-143 -86 -37 22 c-20 12 -50 29 -67 39 -70 40 -369 217 -455
269 -12 8 -12 17 4 68 31 100 114 299 170 411 56 111 119 185 261 307 32 28
63 55 69 60 23 21 163 122 215 155 127 80 318 176 436 219 l78 28 76 -30 c42
-17 114 -51 161 -75z m1689 -59 c47 -25 96 -53 110 -62 14 -10 62 -42 106 -72
44 -29 89 -61 100 -70 244 -202 399 -371 541 -590 68 -104 179 -308 172 -315
-2 -2 -26 12 -54 30 -103 69 -416 226 -451 226 -13 0 -39 28 -438 479 l-330
373 -1 46 c-1 26 1 52 3 59 5 13 104 -29 242 -104z m-358 -121 c25 -26 76 -83
114 -127 39 -44 77 -87 85 -95 8 -8 61 -67 117 -131 56 -64 108 -123 115 -130
7 -8 63 -70 123 -139 61 -69 115 -130 120 -136 6 -6 20 -23 33 -38 l22 -27
-40 -121 c-47 -143 -195 -518 -213 -540 -8 -11 -37 -18 -92 -23 -44 -3 -93 -8
-110 -9 -48 -5 -166 -17 -215 -22 -25 -2 -63 -6 -85 -9 -150 -17 -197 -22
-295 -30 -41 -3 -86 -8 -100 -10 -37 -6 -161 -18 -192 -19 -19 -1 -34 9 -56
36 -24 31 -65 77 -177 202 -25 28 -96 108 -155 176 -36 41 -102 113 -146 160
l-81 85 152 456 c84 251 155 461 159 467 7 12 83 24 231 37 39 3 86 8 105 10
19 2 78 6 130 10 52 4 96 8 97 9 2 1 72 3 157 3 l154 2 43 -47z m-2610 -1265
l284 -168 1 -92 c0 -140 16 -383 28 -462 3 -16 8 -52 11 -80 5 -46 25 -162 44
-262 l9 -43 -215 -337 c-118 -186 -221 -344 -228 -352 -11 -12 -23 -7 -77 29
-93 63 -145 104 -223 174 -64 58 -72 69 -94 137 -30 92 -60 209 -55 209 3 0 1
8 -5 18 -5 9 -12 37 -15 62 -3 25 -8 59 -11 75 -20 119 -27 209 -29 346 -4
241 36 524 86 617 63 115 188 304 198 300 4 -2 135 -79 291 -171z m3183 -517
c113 -171 226 -361 302 -505 l67 -128 -19 -36 c-10 -20 -41 -76 -68 -126 -26
-49 -71 -133 -99 -185 -27 -52 -78 -147 -112 -210 -65 -120 -139 -258 -211
-395 l-43 -80 -98 -17 c-54 -9 -123 -19 -153 -23 -30 -3 -68 -8 -85 -11 -49
-8 -95 -12 -195 -19 -52 -4 -111 -9 -130 -10 -19 -2 -84 -5 -144 -6 l-109 -1
-70 118 c-38 66 -79 137 -92 159 -12 22 -89 155 -170 295 -81 140 -159 275
-173 300 -14 25 -30 53 -36 62 -12 20 -32 -20 194 403 35 66 99 188 141 270
l78 150 98 12 c54 6 130 14 169 18 39 3 82 8 95 10 13 2 60 6 103 10 43 4 86
8 95 10 9 1 54 6 101 10 47 3 92 8 100 10 8 2 47 6 85 10 39 3 86 7 105 10 19
2 67 7 105 10 39 4 72 9 74 11 7 7 15 -4 95 -126z m1022 -417 c-2 -16 -7 -53
-11 -83 -11 -101 -47 -274 -73 -360 -14 -47 -27 -90 -28 -95 -1 -6 -22 -62
-47 -126 -115 -296 -304 -585 -528 -808 -105 -106 -267 -241 -287 -241 -5 0
-12 24 -16 53 -9 64 -29 159 -56 256 l-20 74 74 136 c40 75 93 172 116 216 24
44 55 103 70 130 15 28 91 170 170 318 l142 267 95 46 c108 52 287 157 353
208 25 19 46 35 48 35 1 1 0 -11 -2 -26z m-3642 -329 c33 -9 68 -17 76 -19 8
-2 33 -8 56 -14 47 -13 272 -59 324 -67 19 -3 42 -7 50 -9 27 -8 94 -19 176
-30 28 -4 77 -12 109 -18 63 -13 59 -9 138 -147 10 -19 95 -165 187 -325 92
-159 177 -306 188 -325 10 -19 33 -58 50 -87 l31 -51 -90 -124 c-50 -68 -98
-134 -107 -147 -24 -33 -123 -164 -132 -174 -4 -5 -45 -1 -91 7 -46 9 -97 18
-114 21 -16 2 -41 7 -55 10 -26 5 -42 8 -142 25 -32 6 -70 13 -85 15 -16 3
-55 10 -88 16 -33 5 -71 12 -85 14 -14 3 -38 7 -55 10 -16 3 -82 15 -145 27
-63 11 -122 22 -130 23 -15 2 -98 17 -112 21 -5 1 -17 2 -27 3 -22 1 -164 183
-263 336 -70 109 -188 311 -188 324 0 7 59 103 152 247 24 38 100 156 167 262
68 105 128 192 133 192 6 0 38 -7 72 -16z m286 -1573 c91 -17 179 -33 195 -36
26 -4 335 -58 405 -70 14 -3 36 -7 50 -10 14 -3 40 -8 59 -11 19 -4 76 -27
128 -51 52 -24 120 -53 151 -65 31 -11 60 -24 65 -27 14 -13 -287 -2 -398 14
-16 3 -46 7 -65 10 -218 31 -501 124 -715 234 -81 41 -98 53 -65 46 14 -2 99
-18 190 -34z"/>
</g>
</svg>
